<svg width="51.25" height="35.7" viewBox="0 0 51.25 35.7" xmlns="http://www.w3.org/2000/svg"><g id="svgGroup" stroke-linecap="round" fill-rule="evenodd" font-size="9pt" stroke="#ffffff" stroke-width=".25mm" fill="#ffffff" style="stroke:#ffffff;stroke-width:.25mm;fill:#ffffff"><path d="M 19.65 17.45 L 31.65 35.7 L 24.35 35.7 L 15.6 21.45 L 6.8 35.7 L 0 35.7 L 11.85 17.2 L 0.75 0 L 7.8 0 L 15.9 13.3 L 23.95 0 L 30.8 0 L 19.65 17.45 Z M 51.25 0 L 51.25 35.7 L 44.95 35.7 L 44.95 13.45 Q 44.95 12.35 44.975 11.2 Q 45 10.05 45.05 8.875 A 331.747 331.747 0 0 1 45.1 7.744 A 260.686 260.686 0 0 1 45.15 6.7 A 23.706 23.706 0 0 1 44.74 7.1 Q 44.554 7.276 44.344 7.47 A 47.409 47.409 0 0 1 43.9 7.875 Q 43.15 8.55 42.35 9.25 L 38.35 12.45 L 35.2 8.55 L 46 0 L 51.25 0 Z" vector-effect="non-scaling-stroke"/></g></svg>